<?xml version="1.0" encoding="UTF-8" standalone="no"?>
<!-- Created with Inkscape (http://www.inkscape.org/) -->

<svg
   width="210mm"
   height="297mm"
   viewBox="0 0 210 297"
   version="1.1"
   id="svg1"
   xml:space="preserve"
   inkscape:version="1.3 (0e150ed6c4, 2023-07-21)"
   sodipodi:docname="sun.svg"
   xmlns:inkscape="http://www.inkscape.org/namespaces/inkscape"
   xmlns:sodipodi="http://sodipodi.sourceforge.net/DTD/sodipodi-0.dtd"
   xmlns="http://www.w3.org/2000/svg"
   xmlns:svg="http://www.w3.org/2000/svg"><sodipodi:namedview
     id="namedview1"
     pagecolor="#ffffff"
     bordercolor="#666666"
     borderopacity="1.0"
     inkscape:showpageshadow="2"
     inkscape:pageopacity="0.0"
     inkscape:pagecheckerboard="0"
     inkscape:deskcolor="#d1d1d1"
     inkscape:document-units="mm"
     inkscape:zoom="0.77682379"
     inkscape:cx="-228.49455"
     inkscape:cy="489.17142"
     inkscape:window-width="1403"
     inkscape:window-height="1053"
     inkscape:window-x="145"
     inkscape:window-y="55"
     inkscape:window-maximized="0"
     inkscape:current-layer="layer1" /><defs
     id="defs1" /><g
     inkscape:label="Layer 1"
     inkscape:groupmode="layer"
     id="layer1"><path
       style="fill:none;stroke:#000000;stroke-width:0.532489;stroke-linecap:butt;stroke-linejoin:miter;stroke-dasharray:none;stroke-opacity:1"
       d="m 46.049186,104.66331 0.1155,-59.999217"
       id="path4" /><path
       style="fill:none;stroke:#000000;stroke-width:0.532489;stroke-linecap:butt;stroke-linejoin:miter;stroke-dasharray:none;stroke-opacity:1"
       d="m 76.096906,74.477633 -59.99933,-0.0169"
       id="path4-29" /><path
       style="fill:none;stroke:#000000;stroke-width:0.532489;stroke-linecap:butt;stroke-linejoin:miter;stroke-dasharray:none;stroke-opacity:1"
       d="M 67.369376,95.810989 25.025206,53.303473"
       id="path4-7" /><path
       style="fill:none;stroke:#000000;stroke-width:0.532489;stroke-linecap:butt;stroke-linejoin:miter;stroke-dasharray:none;stroke-opacity:1"
       d="M 24.752036,95.724239 67.259576,53.380063"
       id="path4-2" /><path
       style="fill:none;stroke:#000000;stroke-width:0.532489;stroke-linecap:butt;stroke-linejoin:miter;stroke-dasharray:none;stroke-opacity:1"
       d="m 57.432546,102.31394 -22.854,-55.476247"
       id="path4-5" /><path
       style="fill:none;stroke:#000000;stroke-width:0.532489;stroke-linecap:butt;stroke-linejoin:miter;stroke-dasharray:none;stroke-opacity:1"
       d="M 73.641466,62.927253 18.202836,85.872389"
       id="path4-29-4" /><path
       style="fill:none;stroke:#000000;stroke-width:0.532489;stroke-linecap:butt;stroke-linejoin:miter;stroke-dasharray:none;stroke-opacity:1"
       d="M 73.742196,85.976579 18.354356,62.909173"
       id="path4-7-7" /><path
       style="fill:none;stroke:#000000;stroke-width:0.532489;stroke-linecap:butt;stroke-linejoin:miter;stroke-dasharray:none;stroke-opacity:1"
       d="M 34.335706,102.20539 57.403146,46.817533"
       id="path4-2-6" /><circle
       style="fill:#ffffff;fill-opacity:1;stroke:#000000;stroke-width:0.534393;stroke-opacity:1"
       id="path2-6"
       cx="46.123352"
       cy="74.483444"
       r="15.209639" /><a
       id="a7"><g
         id="g14"><path
           style="fill:none;stroke:#000000;stroke-width:0.665;stroke-linecap:butt;stroke-linejoin:miter;stroke-opacity:1;stroke-dasharray:none"
           d="m 20.239143,202.00143 c -0.525544,-0.3749 -1.322295,-0.64606 -0.396829,-1.57602 -1.875539,-3.08222 0.318058,-3.46566 1.846047,-4.29056 -0.315138,-1.5163 -2.465647,-2.25658 -0.05638,-4.92481 -0.539309,-1.37748 -2.15328,-2.50274 -0.197489,-4.46583 -0.788387,-4.77453 -1.183098,-9.35259 7.94168,-9.17991 -3.832049,-5.42683 3.411062,-4.60843 6.426573,-6.17396 1.03258,-3.38082 -4.862431,-6.00181 3.667408,-10.20493 7.820578,-10.09681 19.407587,-4.27429 18.056312,4.30058 1.006073,-2.33897 1.827204,-5.21143 4.006228,-4.16689 0.265103,-2.89535 5.347126,-10.6363 8.651425,-4.33076 l 1.192088,-2.61353 c -1.187206,-6.68145 -0.16805,-12.6243 12.144325,-14.7866 2.498859,-12.27812 26.451069,-12.96079 23.329049,1.50762 2.79191,-2.24302 5.00469,1.85954 4.91214,4.32569 l 0.75603,1.44986 c -3.39505,-10.53712 1.13823,-20.7795 13.55619,-14.66168 2.49954,-2.11303 4.99909,-2.01716 7.49863,0.39245"
           id="path1"
           sodipodi:nodetypes="cccccccccccccccccc" /><path
           style="fill:none;stroke:#000000;stroke-width:0.665;stroke-linecap:butt;stroke-linejoin:miter;stroke-opacity:1;stroke-dasharray:none"
           d="m 116.2209,130.37328 c -0.79461,-7.31418 1.7709,-12.44823 10.20622,-13.77379 -0.38076,-1.51364 -0.86629,-3.02727 0.85725,-4.54091 -0.67382,-12.510345 31.51002,-18.585562 26.03148,5.89677"
           id="path2"
           sodipodi:nodetypes="cccc" /><path
           style="fill:none;stroke:#000000;stroke-width:0.665;stroke-linecap:butt;stroke-linejoin:miter;stroke-opacity:1;stroke-dasharray:none"
           d="m 22.509413,201.24564 c 4.252775,-0.70325 7.81713,-1.96229 8.222417,-5.77173 5.867092,1.11596 11.287989,1.6133 10.502442,-6.49422 7.125981,8.48903 9.222779,-2.34909 8.616865,-2.30036 0.417294,2.66338 1.915238,4.11084 5.07365,3.69 4.700906,3.34494 19.411152,3.36577 19.758417,-4.42907 5.5076,2.84938 5.87833,0.10855 8.279069,-0.42311 4.232189,1.38196 11.676029,6.49536 12.254542,-5.36432"
           id="path3"
           sodipodi:nodetypes="cccccccc" /><path
           style="fill:none;stroke:#000000;stroke-width:0.665;stroke-linecap:butt;stroke-linejoin:miter;stroke-opacity:1;stroke-dasharray:none"
           d="m 95.13318,184.73744 c -1.236239,0.11729 26.12787,3.65005 22.24335,-11.76745 5.13707,0.0364 6.85221,-2.09788 6.54407,-5.51554"
           id="path5"
           sodipodi:nodetypes="ccc" /><path
           style="fill:none;stroke:#000000;stroke-width:0.665;stroke-linecap:butt;stroke-linejoin:miter;stroke-opacity:1;stroke-dasharray:none"
           d="m 122.30253,171.93314 c 4.09593,8.26147 15.1851,6.51448 18.43969,2.51266 5.13491,2.83507 9.97895,4.28448 12.41674,-5.72913 10.38011,18.94642 29.77191,9.58141 28.4665,1.46079 5.36947,-0.76264 10.11271,-2.02917 5.80169,-10.58109 16.47314,1.53075 7.75568,-24.24614 2.28405,-20.47934 0.81523,-5.27793 0.12962,-9.75077 -6.58476,-10.98968 0.48688,-1.88448 2.61869,-4.27045 -3.39287,-4.17379 1.43954,-15.97638 -24.30986,-13.47685 -21.77276,4.38221"
           id="path6"
           sodipodi:nodetypes="ccccccccc" /><path
           style="fill:none;stroke:#000000;stroke-width:0.665;stroke-linecap:butt;stroke-linejoin:miter;stroke-opacity:1;stroke-dasharray:none"
           d="m 158.09146,123.41015 c 0.45417,-2.42039 -1.50196,-2.79158 -4.12291,-2.59755 0.94827,-3.37096 -0.2615,-4.72045 -3.98379,-3.71647"
           id="path7"
           sodipodi:nodetypes="ccc" /><path
           style="fill:none;stroke:#000000;stroke-width:0.264583px;stroke-linecap:butt;stroke-linejoin:miter;stroke-opacity:1"
           d="m 20.13496,201.84705 3.000266,-0.81616"
           id="path13" /><path
           style="fill:none;stroke:#000000;stroke-width:0.264583px;stroke-linecap:butt;stroke-linejoin:miter;stroke-opacity:1"
           d="m 116.21039,130.13148 0.34303,0.66374"
           id="path14" /></g></a></g></svg>
