<?xml version="1.0" encoding="UTF-8" standalone="no"?>
<!-- Created with Inkscape (http://www.inkscape.org/) -->

<svg
   width="210mm"
   height="297mm"
   viewBox="0 0 210 297"
   version="1.1"
   id="svg1"
   xml:space="preserve"
   inkscape:version="1.3 (0e150ed6c4, 2023-07-21)"
   sodipodi:docname="smoke.svg"
   xmlns:inkscape="http://www.inkscape.org/namespaces/inkscape"
   xmlns:sodipodi="http://sodipodi.sourceforge.net/DTD/sodipodi-0.dtd"
   xmlns="http://www.w3.org/2000/svg"
   xmlns:svg="http://www.w3.org/2000/svg"><sodipodi:namedview
     id="namedview1"
     pagecolor="#ffffff"
     bordercolor="#666666"
     borderopacity="1.0"
     inkscape:showpageshadow="2"
     inkscape:pageopacity="0.0"
     inkscape:pagecheckerboard="0"
     inkscape:deskcolor="#d1d1d1"
     inkscape:document-units="mm"
     inkscape:zoom="0.77682379"
     inkscape:cx="402.27913"
     inkscape:cy="507.19353"
     inkscape:window-width="1920"
     inkscape:window-height="1029"
     inkscape:window-x="-5"
     inkscape:window-y="27"
     inkscape:window-maximized="0"
     inkscape:current-layer="layer1" /><defs
     id="defs1"><clipPath
       clipPathUnits="userSpaceOnUse"
       id="clipPath2"><path
         style="fill:none;stroke:#f00404;stroke-width:0.264583px;stroke-linecap:butt;stroke-linejoin:miter;stroke-opacity:1"
         d="m 19.053328,163.32051 -0.453978,-1.35159 c -1.977163,-2.79384 -0.578065,-3.86108 2.118498,-4.26482 -1.991918,-1.97381 -1.293453,-3.11038 -0.351895,-4.1713 -0.638341,-1.15309 -2.186929,-2.113 -0.233994,-3.81606 -1.42896,-1.12037 -1.678667,-9.74884 7.33839,-8.59101 0.05224,-1.73008 -1.223275,-4.15848 3.729691,-3.31109 l 2.476738,-1.00712 c -1.221288,-1.74353 -2.018295,-8.60817 3.575695,-9.42891 1.602833,-6.77178 16.553363,-7.31184 18.319536,0.98636 0.814271,-0.71616 1.271347,-1.71523 3.381833,-1.40476 -0.310883,-1.55348 1.678974,-7.65758 8.243938,-4.7428 l 1.320419,-0.94293 c -4.875062,-10.84682 9.308978,-13.05016 12.241522,-13.46382 -3.347427,-11.484793 26.005799,-10.403266 21.606379,1.87466 2.29478,-2.46353 2.77063,-0.79217 3.43352,0.45402 1.14857,-3.44037 -1.02902,-7.09245 6.42477,-10.13151 -1.50932,-5.949836 -0.47871,-10.809576 8.70868,-12.168566 0.35405,-1.606986 -1.37389,-3.273896 2.66733,-4.774758 1.53444,-18.038704 35.4345,-8.620511 23.52722,4.746231 0.96273,1.38661 2.03117,2.143543 1.72867,3.542228 1.36866,-0.199977 2.64889,-0.228118 2.95727,1.631929 -3.31831,-6.296237 20.9479,-17.459314 21.50721,1.200923 2.83075,-0.287925 3.93781,0.550741 2.68125,2.934229 9.47444,2.286257 6.417,6.823294 5.55779,10.965514 7.83567,-1.3479 17.56337,11.96905 0.29507,18.85081 0.32311,6.76533 -2.78655,7.98296 -6.60667,8.05239 -1.95323,10.7696 -17.14998,11.76956 -27.99183,-0.88103 -2.1266,8.19402 -6.57653,8.067 -11.82461,5.08146 -2.13124,3.65783 -14.13466,5.72812 -16.71769,-2.12427 -2.03757,1.09992 -4.00827,1.50041 -5.84877,0.53908 2.88556,10.45748 -14.231797,12.79825 -20.755427,10.04896 -3.816186,3.35665 -7.803605,4.35499 -12.160803,0.26067 -1.976782,1.52004 -3.96199,3.01572 -7.221223,0.82776 -5.339998,10.18014 -19.442628,6.39201 -20.241472,3.95673 -1.646634,0.90727 -3.186681,1.14341 -4.248136,-1.63396 -0.425972,3.04762 -2.217407,4.98554 -8.905934,2.94361 -1.119449,2.74227 -3.095053,5.53481 -9.124076,3.1175 -1.079635,3.92463 -6.125237,5.3505 -9.149179,4.7761 z"
         id="path2"
         sodipodi:nodetypes="cccccccccccccccccccccccccccccccccccccccc" /></clipPath></defs><g
     inkscape:label="Layer 1"
     inkscape:groupmode="layer"
     id="layer1"><g
       id="g9"><rect
         style="fill:#b3b3b3;stroke:#000000;stroke-width:0.665001;stroke-opacity:1"
         id="rect1"
         width="341.87411"
         height="183.60585"
         x="-73.725975"
         y="44.19466"
         clip-path="url(#clipPath2)" /><path
         style="fill:none;stroke:#000000;stroke-width:0.6;stroke-linecap:butt;stroke-linejoin:miter;stroke-opacity:1;stroke-dasharray:none"
         d="m 19.239384,163.08166 -0.453978,-1.35159 c -1.977163,-2.79384 -0.578065,-3.86108 2.118498,-4.26482 -1.991918,-1.97381 -1.293453,-3.11038 -0.351895,-4.1713 -0.638341,-1.15309 -2.186929,-2.113 -0.233994,-3.81606 -1.42896,-1.12037 -1.678667,-9.74884 7.338386,-8.59101 0.0522,-1.73008 -1.22327,-4.15848 3.72969,-3.31109 l 2.47674,-1.00712 c -1.22129,-1.74353 -2.01829,-8.60817 3.5757,-9.42891 1.60283,-6.77178 16.55336,-7.31184 18.31953,0.98636 0.81427,-0.71616 1.27135,-1.71523 3.38183,-1.40476 -0.31088,-1.55348 1.67898,-7.65758 8.24394,-4.7428 l 1.32042,-0.94293 c -4.87506,-10.84682 9.30898,-13.05016 12.24152,-13.46382 -3.34742,-11.484796 26.005799,-10.403266 21.606379,1.87466 2.29478,-2.46353 2.77063,-0.79217 3.43352,0.45402 1.14857,-3.44037 -1.02902,-7.09245 6.42477,-10.131507 -1.50932,-5.949839 -0.47871,-10.809579 8.70868,-12.168569 0.35405,-1.60699 -1.37389,-3.2739 2.66733,-4.77476 1.53444,-18.0387 35.4345,-8.62051 23.52722,4.74623 0.96273,1.38661 2.03117,2.14355 1.72867,3.54223 1.36866,-0.19998 2.64889,-0.22812 2.95727,1.63193 -3.31831,-6.29624 20.9479,-17.45931 21.50721,1.20092 2.83075,-0.28792 3.93781,0.55074 2.68125,2.93423 9.47444,2.28626 6.417,6.823296 5.55779,10.965516 7.83567,-1.3479 17.56337,11.96905 0.29507,18.85081 0.32311,6.76533 -2.78655,7.98296 -6.60667,8.05239 -1.95323,10.7696 -17.14998,11.76956 -27.99183,-0.88103 -2.1266,8.19402 -6.57653,8.067 -11.82461,5.08146 -2.13124,3.65783 -14.13466,5.72812 -16.71769,-2.12427 -2.03757,1.09992 -4.00827,1.50041 -5.84877,0.53908 2.88556,10.45748 -14.231789,12.79825 -20.755429,10.04896 -3.81618,3.35665 -7.8036,4.35499 -12.1608,0.26067 -1.97678,1.52004 -3.96199,3.01572 -7.22122,0.82776 -5.34,10.18014 -19.44263,6.39201 -20.24147,3.95673 -1.64664,0.90727 -3.18668,1.14341 -4.24814,-1.63396 -0.42597,3.04762 -2.2174,4.98554 -8.90593,2.94361 -1.11945,2.74227 -3.09505,5.53481 -9.12408,3.1175 -1.07963,3.92463 -6.12523,5.3505 -9.14918,4.7761 z"
         id="path1-4"
         sodipodi:nodetypes="cccccccccccccccccccccccccccccccccccccccc" /><path
         style="fill:none;stroke:#000000;stroke-width:0.6;stroke-linecap:butt;stroke-linejoin:miter;stroke-dasharray:none;stroke-opacity:1"
         d="m 46.774076,122.05246 c 6.686297,0.5774 10.756126,3.42389 8.048122,11.84371"
         id="path3"
         sodipodi:nodetypes="cc" /><path
         style="fill:none;stroke:#000000;stroke-width:0.6;stroke-linecap:butt;stroke-linejoin:miter;stroke-dasharray:none;stroke-opacity:1"
         d="m 64.428647,121.11518 c 1.816909,0.51928 4.341745,1.24222 4.73125,3.65313"
         id="path4"
         sodipodi:nodetypes="cc" /><path
         style="fill:none;stroke:#000000;stroke-width:0.6;stroke-linecap:butt;stroke-linejoin:miter;stroke-dasharray:none;stroke-opacity:1"
         d="m 67.50212,153.70881 c 5.761097,-2.67381 7.359197,-8.30228 5.436067,-14.68373"
         id="path5"
         sodipodi:nodetypes="cc" /><path
         style="fill:none;stroke:#000000;stroke-width:0.6;stroke-linecap:butt;stroke-linejoin:miter;stroke-dasharray:none;stroke-opacity:1"
         d="m 108.06657,102.54769 c 4.81553,-4.520801 10.29009,-3.669918 12.59666,0.16138 1.67384,-1.53179 3.34167,-3.080057 6.7183,0.0634"
         id="path6"
         sodipodi:nodetypes="ccc" /><path
         style="fill:none;stroke:#000000;stroke-width:0.6;stroke-linecap:butt;stroke-linejoin:miter;stroke-dasharray:none;stroke-opacity:1"
         d="m 144.04445,87.447696 c 1.56084,-0.290981 3.44266,-0.322819 4.5994,1.945337"
         id="path7"
         sodipodi:nodetypes="cc" /><path
         style="fill:none;stroke:#000000;stroke-width:0.6;stroke-linecap:butt;stroke-linejoin:miter;stroke-dasharray:none;stroke-opacity:1"
         d="m 115.85959,137.94741 c 2.21178,-0.87989 4.83307,-1.4596 4.32686,-5.18342"
         id="path8"
         sodipodi:nodetypes="cc" /><path
         style="fill:none;stroke:#000000;stroke-width:0.6;stroke-linecap:butt;stroke-linejoin:miter;stroke-dasharray:none;stroke-opacity:1"
         d="m 88.479113,149.88488 c 2.633757,-1.50669 5.52348,-2.77863 4.087707,-6.72242"
         id="path9"
         sodipodi:nodetypes="cc" /></g></g></svg>
